<?xml version="1.0" encoding="iso-8859-1"?>
<!-- Generator: Adobe Illustrator 19.0.0, SVG Export Plug-In . SVG Version: 6.00 Build 0)  -->
<svg version="1.1" id="Layer_1" xmlns="http://www.w3.org/2000/svg" xmlns:xlink="http://www.w3.org/1999/xlink" x="0px" y="0px"
	 viewBox="0 0 512.001 512.001" style="enable-background:new 0 0 512.001 512.001;" xml:space="preserve">
<g>
	<g>
		<path d="M361.527,377.839c-9.625-5.068-33.318-18.49-43.536-28.135v-26.191c32.68-18.787,55.045-52.405,62.206-93.531
			c18.607-5.311,34.799-22.685,34.799-38.652c0-16.221-12.185-26.993-32.335-29.225v-19.129
			c0.158-4.579,1.563-67.652-37.994-108.823C322.893,11.49,293.062,0,256.002,0c-37.158,0-67.044,11.514-88.826,34.221
			c-39.48,41.157-38.001,104.123-37.834,108.761v19.124c-20.151,2.232-32.335,13.004-32.335,29.225
			c0,15.967,16.194,33.339,34.799,38.652c7.162,41.134,29.534,74.756,62.206,93.533v26.19c-10.217,9.641-33.937,23.08-43.554,28.145
			C45.396,411.942,43.158,474.186,43.115,476.824l-0.001,35.177h425.773v-35.089C468.873,474.256,467.32,411.619,361.527,377.839z
			 M178.932,45.36c18.605-19.352,44.535-29.164,77.07-29.164c32.442,0,58.322,9.793,76.918,29.107
			c27.707,28.774,32.611,71.659,33.422,89.244c-69.062-2.924-132.388-41.328-133.041-41.729l-5.447-3.353l-4.523,4.523
			c-33.19,33.19-63.757,42.509-77.815,45.119C145.681,125.901,148.435,77.083,178.932,45.36z M146.97,222.127l-0.841-6.092
			l-6.094-0.826c-11.717-1.587-26.833-13.452-26.833-23.879c0-12.488,18.552-13.459,24.237-13.459h8.098v-22.304
			c14.834-2.216,48.104-10.995,84.763-45.763c17.497,9.814,73.821,38.598,136.169,40.961l-0.005,27.105h8.098
			c5.686,0,24.237,0.971,24.237,13.459c0,10.427-15.116,22.292-26.833,23.879l-6.094,0.826l-0.841,6.092
			c-5.559,40.254-27.019,72.846-58.86,89.411c-15.155,7.839-32.034,11.813-50.171,11.813c-18.337,0-35.203-3.968-50.155-11.805
			C173.989,294.972,152.529,262.38,146.97,222.127z M210.208,331.273c14.14,5.487,29.485,8.273,45.794,8.273
			c16.181,0,31.523-2.8,45.794-8.317v18.639c-5.573,5.783-23.205,21.985-45.794,21.985s-40.222-16.203-45.794-21.985V331.273z
			 M59.31,495.804v-18.698c0.052-0.948,0.975-13.941,12.483-30.19c20.263-28.612,57.024-45.086,84.297-53.867l0.654-0.211
			l0.61-0.319c3.354-1.751,29.402-15.506,44.481-28.135c9.324,8.777,28.869,23.665,54.166,23.665
			c25.296,0,44.842-14.888,54.166-23.665c15.08,12.629,41.127,26.385,44.481,28.135l0.627,0.328l0.675,0.214
			c27.435,8.691,64.363,25.063,84.49,53.707c11.562,16.453,12.227,29.612,12.253,30.278v18.757H59.31z"/>
	</g>
</g>
<g>
</g>
<g>
</g>
<g>
</g>
<g>
</g>
<g>
</g>
<g>
</g>
<g>
</g>
<g>
</g>
<g>
</g>
<g>
</g>
<g>
</g>
<g>
</g>
<g>
</g>
<g>
</g>
<g>
</g>
</svg>
